<svg xmlns="http://www.w3.org/2000/svg" viewBox="0 0 291.32 291.32"><path d="M145.66 0C65.22 0 0 65.22 0 145.66c0 80.45 65.22 145.66 145.66 145.66s145.66-65.2 145.66-145.66C291.32 65.22 226.1 0 145.66 0zm40.802 256.625l-1.83-31.235c-.364-4.388-.838-15.55-11.434-22.677 42.068-3.523 62.087-26.774 63.526-57.5 1.202-17.497-5.754-32.883-18.107-45.3.628-13.282-.4-29.023-1.256-35.94-9.486-2.73-31.608 8.95-37.8 13.947-13.037-5.062-44.945-6.837-64.336 0-13.747-9.668-29.396-15.64-37.926-13.974-7.875 17.452-2.813 33.948-1.275 35.914-10.142 9.268-24.29 20.675-20.447 44.572 6.163 35.04 30.816 53.94 70.508 58.564-8.466 1.73-9.896 8.048-10.606 10.788-26.656 10.997-34.275-6.79-37.644-11.425-11.188-13.847-21.23-9.832-21.85-9.614-.6.218-1.056 1.092-.992 1.51.564 2.986 6.655 6.018 6.955 6.263 8.257 6.154 11.316 17.27 13.2 20.438 11.844 19.473 39.374 11.398 39.638 11.562.018 1.702-.19 16.032-.355 27.184-50.197-13.71-87.13-59.503-87.13-114.043 0-65.365 52.984-118.348 118.348-118.348s118.35 52.983 118.35 118.348c0 51.008-32.318 94.332-77.546 110.965z" fill="#2b414d"/></svg>