<svg xmlns="http://www.w3.org/2000/svg" style="display:none;">
    <symbol id="github" viewBox="0 0 291.32 291.32">
        <path d="M145.66 0C65.22 0 0 65.22 0 145.66c0 80.45 65.22 145.66 145.66 145.66s145.66-65.2 145.66-145.66C291.32 65.22 226.1 0 145.66 0zm40.802 256.625l-1.83-31.235c-.364-4.388-.838-15.55-11.434-22.677 42.068-3.523 62.087-26.774 63.526-57.5 1.202-17.497-5.754-32.883-18.107-45.3.628-13.282-.4-29.023-1.256-35.94-9.486-2.73-31.608 8.95-37.8 13.947-13.037-5.062-44.945-6.837-64.336 0-13.747-9.668-29.396-15.64-37.926-13.974-7.875 17.452-2.813 33.948-1.275 35.914-10.142 9.268-24.29 20.675-20.447 44.572 6.163 35.04 30.816 53.94 70.508 58.564-8.466 1.73-9.896 8.048-10.606 10.788-26.656 10.997-34.275-6.79-37.644-11.425-11.188-13.847-21.23-9.832-21.85-9.614-.6.218-1.056 1.092-.992 1.51.564 2.986 6.655 6.018 6.955 6.263 8.257 6.154 11.316 17.27 13.2 20.438 11.844 19.473 39.374 11.398 39.638 11.562.018 1.702-.19 16.032-.355 27.184-50.197-13.71-87.13-59.503-87.13-114.043 0-65.365 52.984-118.348 118.348-118.348s118.35 52.983 118.35 118.348c0 51.008-32.318 94.332-77.546 110.965z" 
        fill="#2b414d"
        />
    </symbol>
    <symbol id="linkedin" viewBox="0 0 291.319 291.319">
        <path d="M145.66 0c80.45 0 145.66 65.22 145.66 145.66s-65.2 145.66-145.66 145.66S0 226.1 0 145.66 65.2 0 145.66 0z" fill="#0e76a8"/><path d="M82.08 200.136h27.275v-90.9H82.08v90.9zm106.26-94.06c-13.237 0-25.08 4.834-33.483 15.504v-12.654H127.48v91.2h27.375v-49.324c0-10.424 9.55-20.593 21.512-20.593s14.912 10.17 14.912 20.338v49.57h27.275v-51.6c-.001-35.842-16.97-42.45-30.216-42.45zm-92.75-5.936c7.538 0 13.656-6.118 13.656-13.656S103.127 72.83 95.59 72.83s-13.656 6.118-13.656 13.656S88.05 100.14 95.59 100.14z" fill="#fff"/>
    </symbol>
    <symbol id="twitter" viewBox="0 0 410.155 410.155">
        <path d="M403.632 74.18c-9.113 4.04-18.573 7.23-28.28 9.537C386.048 73.553 394.1 60.84 398.627 46.65c1.295-4.05-3.105-7.554-6.763-5.385-13.504 8-28.05 14.02-43.235 17.862a11.02 11.02 0 0 1-2.702.336c-2.766 0-5.455-1.027-7.57-2.89-16.156-14.24-36.935-22.08-58.508-22.08-9.335 0-18.76 1.455-28.014 4.325C223.163 47.71 201.04 71.36 194.1 100.54c-2.604 10.945-3.31 21.9-2.097 32.56.14 1.225-.44 2.08-.797 2.48-.627.703-1.516 1.106-2.44 1.106a3.33 3.33 0 0 1-.314-.015C125.7 130.84 69.094 100.604 29.09 51.532c-2.04-2.503-5.952-2.196-7.578.593C13.677 65.565 9.537 80.937 9.537 96.58c0 23.972 9.63 46.563 26.36 63.032a79.24 79.24 0 0 1-20.169-7.808c-3.06-1.7-6.825.485-6.868 3.985-.438 35.612 20.412 67.3 51.646 81.57l-1.888.022c-4.95 0-9.964-.478-14.898-1.42-3.446-.658-6.34 2.61-5.27 5.952 10.138 31.65 37.4 54.98 70.002 60.278-27.066 18.17-58.585 27.753-91.4 27.753l-10.227-.006a6.77 6.77 0 0 0-6.619 5.106c-.79 3.006.666 6.177 3.353 7.74 36.966 21.513 79.13 32.883 121.955 32.883 37.485 0 72.55-7.44 104.22-22.11 29.033-13.45 54.69-32.674 76.255-57.14 20.1-22.792 35.8-49.103 46.692-78.2 10.383-27.737 15.87-57.333 15.87-85.59v-1.346c-.001-4.537 2.05-8.806 5.63-11.712 13.585-11.03 25.415-24.014 35.16-38.59 2.573-3.85-1.485-8.673-5.72-6.795z" fill="#76a9ea"/>
    </symbol>
</svg>
