<svg xmlns="http://www.w3.org/2000/svg" viewBox="0 0 410.155 410.155"><path d="M403.632 74.18c-9.113 4.04-18.573 7.23-28.28 9.537C386.048 73.553 394.1 60.84 398.627 46.65c1.295-4.05-3.105-7.554-6.763-5.385-13.504 8-28.05 14.02-43.235 17.862a11.02 11.02 0 0 1-2.702.336c-2.766 0-5.455-1.027-7.57-2.89-16.156-14.24-36.935-22.08-58.508-22.08-9.335 0-18.76 1.455-28.014 4.325C223.163 47.71 201.04 71.36 194.1 100.54c-2.604 10.945-3.31 21.9-2.097 32.56.14 1.225-.44 2.08-.797 2.48-.627.703-1.516 1.106-2.44 1.106a3.33 3.33 0 0 1-.314-.015C125.7 130.84 69.094 100.604 29.09 51.532c-2.04-2.503-5.952-2.196-7.578.593C13.677 65.565 9.537 80.937 9.537 96.58c0 23.972 9.63 46.563 26.36 63.032a79.24 79.24 0 0 1-20.169-7.808c-3.06-1.7-6.825.485-6.868 3.985-.438 35.612 20.412 67.3 51.646 81.57l-1.888.022c-4.95 0-9.964-.478-14.898-1.42-3.446-.658-6.34 2.61-5.27 5.952 10.138 31.65 37.4 54.98 70.002 60.278-27.066 18.17-58.585 27.753-91.4 27.753l-10.227-.006a6.77 6.77 0 0 0-6.619 5.106c-.79 3.006.666 6.177 3.353 7.74 36.966 21.513 79.13 32.883 121.955 32.883 37.485 0 72.55-7.44 104.22-22.11 29.033-13.45 54.69-32.674 76.255-57.14 20.1-22.792 35.8-49.103 46.692-78.2 10.383-27.737 15.87-57.333 15.87-85.59v-1.346c-.001-4.537 2.05-8.806 5.63-11.712 13.585-11.03 25.415-24.014 35.16-38.59 2.573-3.85-1.485-8.673-5.72-6.795z" fill="#76a9ea"/></svg>